<?xml version="1.0" encoding="UTF-8" standalone="no"?>
<svg
   xmlns:dc="http://purl.org/dc/elements/1.1/"
   xmlns:cc="http://creativecommons.org/ns#"
   xmlns:rdf="http://www.w3.org/1999/02/22-rdf-syntax-ns#"
   xmlns:svg="http://www.w3.org/2000/svg"
   xmlns="http://www.w3.org/2000/svg"
   xmlns:xlink="http://www.w3.org/1999/xlink"
   xmlns:sodipodi="http://sodipodi.sourceforge.net/DTD/sodipodi-0.dtd"
   xmlns:inkscape="http://www.inkscape.org/namespaces/inkscape"
   viewBox="-147 -70 512 800"
   id="svg3834"
   version="1.1"
   inkscape:version="0.48.4 r9939"
   width="100%"
   height="100%"
   sodipodi:docname="antroid.png">
  <metadata
     id="metadata3865">
    <rdf:RDF>
      <cc:Work
         rdf:about="">
        <dc:format>image/svg+xml</dc:format>
        <dc:type
           rdf:resource="http://purl.org/dc/dcmitype/StillImage" />
        <dc:title></dc:title>
      </cc:Work>
    </rdf:RDF>
  </metadata>
  <defs
     id="defs3863" />
  <sodipodi:namedview
     pagecolor="#ffffff"
     bordercolor="#666666"
     borderopacity="1"
     objecttolerance="10"
     gridtolerance="10"
     guidetolerance="10"
     inkscape:pageopacity="0"
     inkscape:pageshadow="2"
     inkscape:window-width="1366"
     inkscape:window-height="712"
     id="namedview3861"
     showgrid="false"
     inkscape:zoom="0.48370203"
     inkscape:cx="56.564244"
     inkscape:cy="301.68109"
     inkscape:window-x="0"
     inkscape:window-y="0"
     inkscape:window-maximized="1"
     inkscape:current-layer="svg3834" />
  <use
     height="345"
     width="294"
     y="0"
     x="0"
     style="fill:#800000;stroke:#ffffff;stroke-width:14.39999962"
     id="use3838"
     xlink:href="#b" />
  <g
     style="fill:#800000"
     id="b"
     transform="translate(111.70722,232.77878)">
    <ellipse
       style="fill:#800000"
       d="m 91,41 c 0,46.391919 -40.742088,84 -91,84 -50.257912,0 -91,-37.608081 -91,-84 0,-46.391919 40.742088,-84 91,-84 50.257912,0 91,37.608081 91,84 z"
       sodipodi:ry="84"
       sodipodi:rx="91"
       sodipodi:cy="41"
       sodipodi:cx="0"
       cx="0"
       id="ellipse3849"
       ry="84"
       rx="91"
       cy="41" />
    <rect
       style="fill:#800000"
       id="rect3851"
       x="-91"
       y="20"
       width="182"
       height="182"
       rx="22" />
  </g>
  <g
     id="g3853"
     style="fill:#800000;stroke:#ffffff;stroke-width:7.19999981"
     transform="translate(111.70722,232.77878)">
    <path
       d="M -95,44.5 H 95"
       id="path3855"
       inkscape:connector-curvature="0"
       style="fill:#800000" />
    <circle
       cx="-42"
       r="4"
       id="circle3857"
       cy="0"
       sodipodi:cx="-42"
       sodipodi:cy="0"
       sodipodi:rx="4"
       sodipodi:ry="4"
       d="m -38,0 c 0,2.209139 -1.790861,4 -4,4 -2.209139,0 -4,-1.790861 -4,-4 0,-2.209139 1.790861,-4 4,-4 2.209139,0 4,1.790861 4,4 z"
       style="fill:#800000" />
    <circle
       cx="42"
       r="4"
       id="circle3859"
       cy="0"
       sodipodi:cx="42"
       sodipodi:cy="0"
       sodipodi:rx="4"
       sodipodi:ry="4"
       d="m 46,0 c 0,2.209139 -1.790861,4 -4,4 -2.209139,0 -4,-1.790861 -4,-4 0,-2.209139 1.790861,-4 4,-4 2.209139,0 4,1.790861 4,4 z"
       style="fill:#800000" />
  </g>
  <path
     sodipodi:type="arc"
     style="fill:#800000;fill-opacity:1;stroke:none"
     id="path4390"
     sodipodi:cx="264.62573"
     sodipodi:cy="365.21542"
     sodipodi:rx="101.30203"
     sodipodi:ry="152.98674"
     d="m 163.3237,365.21542 a 101.30203,152.98674 0 0 1 202.60406,0 l -101.30203,0 z"
     transform="matrix(1.2193878,0,0,0.74662161,-211.77466,223.19052)"
     sodipodi:start="3.1415927"
     sodipodi:end="6.2831853" />
  <path
     sodipodi:type="arc"
     style="fill:#800000;fill-opacity:1;stroke:none"
     id="path4394"
     sodipodi:cx="255.32248"
     sodipodi:cy="401.91156"
     sodipodi:rx="123.00961"
     sodipodi:ry="133.8634"
     d="m 378.33209,401.91156 a 123.00961,133.8634 0 1 1 -246.01922,-1e-5 l 123.00961,1e-5 z"
     transform="matrix(1.0042017,0,0,1.2779923,-145.48855,-19.838996)"
     sodipodi:start="0"
     sodipodi:end="3.1415927" />
  <g
     id="g4436"
     transform="translate(0,-0.00117438)">
    <rect
       transform="matrix(0.75224753,-0.65888061,0.63746739,0.77047734,0,0)"
       style="fill:#800000;fill-opacity:1;stroke:none"
       id="rect4404"
       width="40.961182"
       height="276.5972"
       x="-229.93448"
       y="475.48035"
       rx="20.480591"
       ry="45.442062" />
    <rect
       transform="matrix(-0.025704,-0.9996696,0.9996696,-0.025704,0,0)"
       style="fill:#800000;fill-opacity:1;stroke:none"
       id="rect4406"
       width="40.93222"
       height="183.60721"
       x="-484.74786"
       y="149.68535"
       rx="20.46611"
       ry="30.164766" />
    <rect
       transform="matrix(0.57818569,0.81590521,-0.81590521,0.57818569,0,0)"
       style="fill:#800000;fill-opacity:1;stroke:none"
       id="rect4408"
       width="40.93222"
       height="183.60721"
       x="403.97769"
       y="-98.996017"
       rx="20.46611"
       ry="30.164766" />
    <rect
       ry="21.666632"
       rx="8.9624233"
       y="-125.04479"
       x="-239.79045"
       height="131.88066"
       width="17.924847"
       id="rect4434"
       style="fill:#800000;fill-opacity:1;stroke:none"
       transform="matrix(-0.89524096,-0.44558233,0.46916327,-0.88311145,0,0)" />
  </g>
  <g
     id="g4442"
     transform="matrix(-1,0,0,1,224.13079,-0.00117438)">
    <rect
       ry="45.442062"
       rx="20.480591"
       y="475.48035"
       x="-229.93448"
       height="276.5972"
       width="40.961182"
       id="rect4444"
       style="fill:#800000;fill-opacity:1;stroke:none"
       transform="matrix(0.75224753,-0.65888061,0.63746739,0.77047734,0,0)" />
    <rect
       ry="30.164766"
       rx="20.46611"
       y="149.68535"
       x="-484.74786"
       height="183.60721"
       width="40.93222"
       id="rect4446"
       style="fill:#800000;fill-opacity:1;stroke:none"
       transform="matrix(-0.025704,-0.9996696,0.9996696,-0.025704,0,0)" />
    <rect
       ry="30.164766"
       rx="20.46611"
       y="-98.996017"
       x="403.97769"
       height="183.60721"
       width="40.93222"
       id="rect4448"
       style="fill:#800000;fill-opacity:1;stroke:none"
       transform="matrix(0.57818569,0.81590521,-0.81590521,0.57818569,0,0)" />
    <rect
       transform="matrix(-0.89524096,-0.44558233,0.46916327,-0.88311145,0,0)"
       style="fill:#800000;fill-opacity:1;stroke:none"
       id="rect4450"
       width="17.924847"
       height="131.88066"
       x="-239.79045"
       y="-125.04479"
       rx="8.9624233"
       ry="21.666632" />
  </g>
</svg>
